<?xml version="1.0" standalone="no"?>
<!DOCTYPE svg PUBLIC "-//W3C//DTD SVG 20010904//EN"
 "http://www.w3.org/TR/2001/REC-SVG-20010904/DTD/svg10.dtd">
<svg version="1.0" xmlns="http://www.w3.org/2000/svg"
 width="48.000000pt" height="48.000000pt" viewBox="0 0 48.000000 48.000000"
 preserveAspectRatio="xMidYMid meet">

<g transform="translate(0.000000,48.000000) scale(0.100000,-0.100000)"
fill="#000000" stroke="none">
<path d="M0 240 l0 -240 240 0 240 0 0 240 0 240 -240 0 -240 0 0 -240z m240
160 c7 0 22 8 32 17 14 13 21 14 30 5 9 -9 9 -15 0 -24 -18 -18 -15 -33 14
-67 21 -25 33 -31 65 -31 32 0 39 -3 39 -20 0 -15 -7 -20 -25 -20 -27 0 -28
-1 -19 -24 3 -9 15 -16 25 -16 12 0 19 -7 19 -20 0 -13 -7 -20 -19 -20 -10 0
-21 -9 -24 -20 -4 -16 0 -20 19 -20 17 0 24 -6 24 -20 0 -16 -7 -20 -34 -20
-18 0 -39 -7 -47 -16 -12 -14 -61 -44 -74 -44 -3 0 -5 50 -5 110 0 103 -1 110
-20 110 -19 0 -20 -7 -20 -110 0 -60 -2 -110 -5 -110 -13 0 -62 30 -74 44 -8
9 -29 16 -47 16 -27 0 -34 4 -34 20 0 14 7 20 24 20 19 0 23 4 19 20 -3 11
-14 20 -24 20 -12 0 -19 7 -19 20 0 13 7 20 20 20 11 0 20 2 20 4 0 2 3 11 6
20 5 12 0 16 -20 16 -19 0 -26 5 -26 20 0 17 7 20 39 20 32 0 44 6 65 31 29
34 32 49 14 67 -20 20 12 35 33 16 8 -7 22 -14 29 -14z"/>
</g>
</svg>
