<?xml version="1.0" standalone="no"?>
<!DOCTYPE svg PUBLIC "-//W3C//DTD SVG 20010904//EN"
 "http://www.w3.org/TR/2001/REC-SVG-20010904/DTD/svg10.dtd">
<svg version="1.0" xmlns="http://www.w3.org/2000/svg"
 width="48.000000pt" height="48.000000pt" viewBox="0 0 48.000000 48.000000"
 preserveAspectRatio="xMidYMid meet">

<g transform="translate(0.000000,48.000000) scale(0.100000,-0.100000)"
fill="#000000" stroke="none">
<path d="M130 350 c-58 -49 -106 -95 -108 -100 -2 -6 10 -10 27 -10 l30 0 3
-87 3 -88 55 0 55 0 3 67 3 68 39 0 39 0 3 -68 3 -67 55 0 55 0 3 87 3 88 29
0 c17 0 30 3 30 8 0 9 -194 180 -213 188 -7 2 -60 -36 -117 -86z"/>
</g>
</svg>
