<?xml version="1.0" standalone="no"?>
<!DOCTYPE svg PUBLIC "-//W3C//DTD SVG 20010904//EN"
 "http://www.w3.org/TR/2001/REC-SVG-20010904/DTD/svg10.dtd">
<svg version="1.0" xmlns="http://www.w3.org/2000/svg"
 width="50.000000pt" height="50.000000pt" viewBox="0 0 50.000000 50.000000"
 preserveAspectRatio="xMidYMid meet">

<g transform="translate(0.000000,50.000000) scale(0.100000,-0.100000)"
fill="#000000" stroke="none">
<path d="M240 360 c0 -73 4 -120 10 -120 6 0 10 47 10 120 0 73 -4 120 -10
120 -6 0 -10 -47 -10 -120z"/>
<path d="M145 453 c-73 -38 -125 -122 -125 -203 0 -49 29 -122 63 -159 33 -36
115 -71 167 -71 52 0 134 35 167 71 101 111 72 293 -59 360 -42 21 -48 23 -48
10 0 -5 13 -14 30 -21 63 -26 120 -116 120 -190 0 -145 -155 -250 -288 -194
-165 69 -176 294 -18 379 20 11 36 23 36 27 0 11 -11 9 -45 -9z"/>
</g>
</svg>
